<svg xmlns="http://www.w3.org/2000/svg" viewBox="0 0 26.39 26.39"><title>im</title><path d="M19.11,0H7.28A7.29,7.29,0,0,0,0,7.28V19.11a7.29,7.29,0,0,0,7.28,7.28H19.11a7.29,7.29,0,0,0,7.28-7.28V7.28A7.29,7.29,0,0,0,19.11,0Zm0,24H7.28a5,5,0,0,1-4.94-4.94V7.28A5,5,0,0,1,7.28,2.34H19.11A5,5,0,0,1,24,7.28V19.11h0A5,5,0,0,1,19.11,24ZM13.19,6.39a6.8,6.8,0,1,0,6.8,6.8A6.81,6.81,0,0,0,13.19,6.39Zm0,11.26a4.46,4.46,0,1,1,4.46-4.46A4.46,4.46,0,0,1,13.19,17.65ZM20.28,4.41a1.72,1.72,0,1,0,1.21.5A1.72,1.72,0,0,0,20.28,4.41Z" fill="#ff9800"/></svg>