<svg xmlns="http://www.w3.org/2000/svg" viewBox="0 0 19.07 32"><title>ok</title><path d="M18.57,19.38A1.8,1.8,0,0,0,18.7,17a1.82,1.82,0,0,0-2.1-.84,3.24,3.24,0,0,0-1.17.61,10.72,10.72,0,0,1-12-.11,3.86,3.86,0,0,0-.55-.32,1.87,1.87,0,0,0-2.49.56A1.89,1.89,0,0,0,.69,19.6c.22.21.46.39.69.57A12.28,12.28,0,0,0,8,22.54l-.4.44L2.15,28.44a2,2,0,0,0-.67,1.34,2.18,2.18,0,0,0,1.25,2,1.76,1.76,0,0,0,2.13-.39C6.28,30,7.69,28.58,9.08,27.14c.35-.36.54-.44.93,0,1.35,1.43,2.76,2.8,4.14,4.2a2,2,0,0,0,1.29.66,2.17,2.17,0,0,0,2-1.28,1.84,1.84,0,0,0-.41-2.15c-1.82-1.86-3.66-3.7-5.49-5.55l-.43-.46a16.24,16.24,0,0,0,3.95-.89A9.65,9.65,0,0,0,18.57,19.38ZM9.47,16.2a8.1,8.1,0,1,0-8-8.12A8.06,8.06,0,0,0,9.47,16.2ZM9.54,4.14a4,4,0,1,1-3.94,4A3.93,3.93,0,0,1,9.54,4.14Z" fill="#f2cf91"/></svg>