<svg xmlns="http://www.w3.org/2000/svg" preserveAspectRatio="xMidYMid" width="16" height="16" viewBox="0 0 16 16"><defs><style>.cls-1{fill:#000;opacity:.3;fill-rule:evenodd}</style></defs><path d="M13.000,12.000 L13.000,16.000 L3.000,16.000 L3.000,12.000 L-0.000,12.000 L-0.000,3.000 L3.000,3.000 L3.000,-0.000 L13.000,-0.000 L13.000,3.000 L16.000,3.000 L16.000,12.000 L13.000,12.000 ZM5.000,14.000 L11.000,14.000 L11.000,12.000 L5.000,12.000 L5.000,14.000 ZM11.000,2.000 L5.000,2.000 L5.000,5.000 L11.000,5.000 L11.000,2.000 ZM14.000,5.000 L13.000,5.000 L13.000,7.000 L3.000,7.000 L3.000,5.000 L2.000,5.000 L2.000,10.000 L14.000,10.000 L14.000,5.000 ZM13.000,9.000 L12.000,9.000 L12.000,8.000 L13.000,8.000 L13.000,9.000 Z" class="cls-1"/></svg>