<svg xmlns="http://www.w3.org/2000/svg" viewBox="0 0 26.4 15.06"><title>vk_1</title><path d="M26.26,13.6l-.09-.17a13.7,13.7,0,0,0-2.63-3l0,0h0a15.82,15.82,0,0,1-1.11-1.13,1.06,1.06,0,0,1-.19-1.11,10.39,10.39,0,0,1,1.24-1.8l.89-1.17q2.38-3.16,2.06-4L26.28,1a.81.81,0,0,0-.43-.23,2.19,2.19,0,0,0-.88,0l-4,0a.51.51,0,0,0-.28,0l-.18,0-.07,0-.05,0a.61.61,0,0,0-.15.14,1,1,0,0,0-.14.24,22.43,22.43,0,0,1-1.47,3.09q-.51.85-.93,1.48a7.1,7.1,0,0,1-.71.92,5,5,0,0,1-.52.47q-.23.18-.36.15l-.23-.05a.92.92,0,0,1-.31-.34,1.5,1.5,0,0,1-.16-.54q0-.32,0-.56t0-.66c0-.28,0-.48,0-.58q0-.52,0-1.13t0-1c0-.24,0-.49,0-.76a3.18,3.18,0,0,0,0-.62A2.13,2.13,0,0,0,15.3.7.75.75,0,0,0,15,.37a1.61,1.61,0,0,0-.46-.19A9.16,9.16,0,0,0,12.7,0,9,9,0,0,0,9.41.33a1.84,1.84,0,0,0-.52.41c-.16.2-.19.31-.07.33A1.69,1.69,0,0,1,10,1.66l.08.17a2.63,2.63,0,0,1,.19.63,6.36,6.36,0,0,1,.12,1,10.7,10.7,0,0,1,0,1.72q-.07.72-.13,1.11a2.24,2.24,0,0,1-.19.65,2.68,2.68,0,0,1-.17.3l-.07.07a1,1,0,0,1-.37.07A.87.87,0,0,1,9,7.19a3.31,3.31,0,0,1-.57-.53,7.08,7.08,0,0,1-.67-.94Q7.39,5.11,7,4.29l-.22-.4q-.21-.38-.56-1.12T5.58,1.35A.91.91,0,0,0,5.25.91l-.07,0A1,1,0,0,0,5,.75,1.41,1.41,0,0,0,4.65.66L.88.69A1,1,0,0,0,.1.95L0,1a.44.44,0,0,0,0,.22,1.09,1.09,0,0,0,.08.37Q.91,3.56,1.88,5.36t1.68,2.9Q4.27,9.36,5,10.34t1,1.25l.38.41.34.33a8.17,8.17,0,0,0,1,.79A16.43,16.43,0,0,0,9.11,14a7.64,7.64,0,0,0,1.81.73,6.24,6.24,0,0,0,2,.23H14.5a1.09,1.09,0,0,0,.73-.3l.05-.07a.91.91,0,0,0,.1-.25,1.41,1.41,0,0,0,0-.38,4.53,4.53,0,0,1,.09-1.07,2.79,2.79,0,0,1,.23-.71,1.77,1.77,0,0,1,.3-.41,1.18,1.18,0,0,1,.23-.2l.11,0a.87.87,0,0,1,.78.21,4.56,4.56,0,0,1,.84.8q.39.47.94,1.07a6.43,6.43,0,0,0,1,.88l.27.16a3.36,3.36,0,0,0,.71.3,1.55,1.55,0,0,0,.77.07L25.19,15a1.6,1.6,0,0,0,.81-.17.68.68,0,0,0,.34-.38,1.07,1.07,0,0,0,0-.47A1.71,1.71,0,0,0,26.26,13.6Z" fill="#ff9800"/></svg>